<?xml version="1.0" encoding="UTF-8"?>
<svg id="Layer_2" xmlns="http://www.w3.org/2000/svg" xmlns:xlink="http://www.w3.org/1999/xlink" viewBox="0 0 110 132">
<defs>
<style>.cls-1,.cls-2,.cls-3,.cls-4{fill:none;}.cls-5{clip-path:url(#clippath);}.cls-6{stroke-width:1.36px;}.cls-6,.cls-7,.cls-8,.cls-9,.cls-2,.cls-3,.cls-4,.cls-10{stroke:#000;}.cls-6,.cls-11{fill:#6fb22f;}.cls-7,.cls-8,.cls-2,.cls-10{stroke-width:1.36px;}.cls-7,.cls-12,.cls-10{fill:#9dcc66;}.cls-8,.cls-13{fill:#598e25;}.cls-14{fill:#fff92c;}.cls-15{fill:#fff;}.cls-16{stroke:#fff;}.cls-16,.cls-9{stroke-width:.68px;}.cls-16,.cls-9,.cls-2,.cls-10{stroke-miterlimit:3.86;}.cls-3{stroke-miterlimit:10;stroke-width:1.99px;}.cls-4{stroke-width:3.14px;}</style>
<clipPath id="clippath"><rect class="cls-1" x=".19" width="86.55" height="132"/></clipPath></defs><g id="Logo"><g><rect class="cls-14" width="86" height="131.56"/><line class="cls-3" x1="86.74" x2="86.74" y2="131.56"/></g></g><g id="Zeta"><g class="cls-5"><g><path class="cls-7" d="m36.64,103.39s1.33,7.71,1.74,11.81c.94,9.38-3.76,15.23-3.76,15.23l-.26.26c-3.29,2.55-5.1,6.26-4.43,9.99,1.05,5.9,7.9,9.62,15.3,8.31,7.4-1.31,12.54-7.15,11.49-13.05l-.38-2.14c-6.99-11.33-6.52-10.52-9.16-16.85-3.2-7.65-1.94-7.78-3.36-16.19"/><path class="cls-8" d="m44.47,143.87s-2.48,15.07-2.32,21.47c.4,15.77-.46,18.08-.46,18.08l-3.45,1.35c-10.07,1.65-9.15,5.51-9.15,5.51,0,0,19.59-1.05,18.06-3.04-1.53-1.99-1.15-22.38.3-28.19"/><path class="cls-7" d="m51.3,146.39s2.34,13.11,4.03,20.52c1.45,6.36,13.23,26.67,13.23,26.67,0,0-16.57,6.24-18.42,6.2-1.85-.04-6.39-.7-6.39-.7,0,0,4.07-4.03,9.24-6.04,5.17-2.02,7.12-3.46,7.12-3.46,0,0-5.05-9.81-6.47-13.54-6.93-18.24-8.63-27.43-8.63-27.43"/><path class="cls-10" d="m40.3,102.84c.2.02.33.13.4.31.1.27-.05.58-.33.65-.5,2.58-2.22,4.27-4.82,4.73-2.48.44-4.54-.41-5.97-2.48-.22,0-.41-.14-.44-.36-.03-.19.04-.34.2-.44l10.95-2.42Z"/><path class="cls-12" d="m51.64,87.51s-2.52,4.06-2.76,4.35c-4.68,7.7-4.94,9.44-4.94,9.44,0,0-6.76,3.44-8.99,3.9-2.15.45-5.64.02-5.64.02,0,0-3.44-6.35-11.58-11.16-.42-.25-.46-1.19-.46-1.19l-8.17-12.57c-1.09-.1-1.88-.82-2.07-1.9-.19-1.11.36-2.09,1.4-2.51.96-10.9,8.59-18.8,19.04-20.65,12.09-2.14,18.65,2.47,24.36,11.97,1.1,1.83,2.8,8.23,2.92,9.29.08.75-.41,6.5-.96,7.03l-2.15,3.99Z"/><path class="cls-16" d="m47.89,71.28c1.37,1.17,2.02,2.1,2.65,3.78,1.67,4.44-.5,8.49-4.27,11.38-3.97,3.05-9.49,4.23-12.81.85-1.16-1.19-1.17-2.62-1.02-4.35,6.03-.78,5.92-7.45,11.17-10.05,1.77-.88,2.83-1.29,4.74-1.83l-.45.22Z"/><path class="cls-9" d="m33.62,95.14l-.97,4.14.07-4.41c-.08-.34.24-.71.59-.67.38.04.59.67.31.94Z"/><path class="cls-9" d="m27.88,96.16l2.34,3.56-1.59-4.11c-.04-.35-.47-.59-.79-.43-.34.17-.32.84.03.99Z"/><path class="cls-2" d="m17.26,92.87s.04.95.46,1.19c8.14,4.81,11.58,11.16,11.58,11.16,0,0,3.49.43,5.64-.02,2.23-.46,5.35-2.36,5.35-2.36,0,0,1.69-7.82,7.25-14.77.23-.29-.17-.96-.17-.96"/><path class="cls-16" d="m24.89,84.32c-3.88.73-5.75-3.26-9.72-3.99-3.13-.57-4.82-.55-7.96-.29-.89,2.49-.64,4.73.01,6.94,1.67,5.65,7.43,6.05,11.31,5.93,2.33-.07,7.51-1.61,7.42-5.28-.04-1.39-.22-2.23-1.05-3.31Z"/><path class="cls-2" d="m47.06,67.31c1.06.11,1.83.86,1.95,1.92.08.75-.12,1.3-.66,1.82-1.9.55-2.96.95-4.74,1.83-5.3,2.61-5.26,9.29-11.29,10.07-.75-.3-1.16-.82-1.28-1.61-.11-.75.1-1.31.66-1.82"/><path class="cls-2" d="m24.54,81.07c.47.44.64.88.85,1.43.33.88.06,1.56-.5,1.74-3.04.99-5.39-2.45-8.55-3.46-3.32-1.06-4.27-.97-7.74-.65-1.09-.1-1.39-.66-1.57-1.74-.19-1.11.36-2.09,1.4-2.51.96-10.9,8.59-18.8,19.04-20.65,12.09-2.14,19.44,2.62,24.36,11.97,0,0,3.81,6.13,2.14,14.43-1.08,5.36-9.91,16.51-9.99,20.42"/><path class="cls-15" d="m49.52,80.09c-.59-.51-2.15.31-3.48,1.84-1.33,1.53-1.93,3.18-1.33,3.69.59.51,2.15-.31,3.48-1.84,1.33-1.53,1.92-3.18,1.33-3.7Z"/><path class="cls-15" d="m49.58,77.52c-.5.09-.84.57-.75,1.07.09.5.57.83,1.07.74.5-.09.84-.57.75-1.06-.09-.5-.57-.83-1.07-.75Z"/><path class="cls-15" d="m23.52,89.66c-.16-.46-1.71-.28-3.47.4-1.76.68-3.05,1.6-2.89,2.05.16.46,1.71.28,3.47-.4,1.75-.68,3.05-1.59,2.89-2.05Z"/><path class="cls-15" d="m24.34,87.46c-.45.08-.75.55-.66,1.05.09.5.53.84.98.76.45-.08.75-.55.66-1.05-.09-.5-.53-.84-.98-.76Z"/><path class="cls-13" d="m32.82,143.57s1.61,2.73,6.17,3.94c3.86,1.02,6.8-.04,6.8-.04,0,0-.9-1.05-1.01-1.69-.14-.77-1.25-1.15-1.25-1.15,0,0-.76,1.2-3.75,1-2.98-.21-6.97-2.06-6.97-2.06Z"/><path class="cls-13" d="m55.47,134.77s.44,3.53-.3,5.8c-.81,2.48-4.44,4.59-4.44,4.59,0,0,.71-1.08.33-1.61-.45-.64-.36-.85-.36-.85,0,0,1.06-.28,3.01-2.53,1.96-2.26,1.75-5.39,1.75-5.39Z"/><path class="cls-13" d="m64.01,187.79s2.94,4.37,2.12,5.25c-.83.88-9.54,3.65-9.54,3.65,0,0-5.31,1.92-6.04,1.93-.74,0-4.14-.49-4.14-.49,0,0,2.72.13,10.11-2.53,7.39-2.65,6.61-2.13,7.6-3.55.88-1.26-.1-4.26-.1-4.26Z"/><path class="cls-13" d="m48.23,148.46s-1.76.43-1.64,1.15c.13.71,5.04,17.81,5.49,19.1,5,14.29,9.19,20.53,9.19,20.53,0,0-6.53-15.25-8.23-20.7-1.71-5.45-4.41-14.4-4.81-20.08Z"/><polyline class="cls-1" points="46.1 113.1 37.09 123.14 33.76 122.38 37.04 120.82 38.31 120.35"/></g></g><g><path class="cls-6" d="m80.01,56.15c-.9.3-37.83,53.41-39.06,55.64-1.4,2.53-1.5,3.77,0,5.44,1.5,1.68,4.76,1.29,6.1-.35,3.14-3.85,36.97-30.12,39.26-30.99"/><path class="cls-13" d="m41.74,112.85s-1.78,1.93.44,3.67c2.22,1.74,4.25-.73,4.25-.73l13.54-11.53-1.13-.27-.87-2.73-13.73,13.53s-.6.8-1.4.07c-.8-.73-1.11-2-1.11-2Z"/></g></g><g id="Layer_5"><g><g><path class="cls-11" d="m49.09,70.77l.27.04-2.57,1.58,4.28,17.39,7.74,2.47.45-.64,2.71,8.89,11.76,2.59,25.88-10.96,9.28-17.75-20.98-39.58-18.21,1.84-9.74-31.31-22.39,9,8.1,15.11,8.33,15.74-10.1,7.95,5.21,17.65Z"/><g><polyline class="cls-4" points="83.29 57.4 68.83 58.89 46.79 72.38 51.07 89.77 58.81 92.24"/><polyline class="cls-4" points="86.25 76.67 71.89 79.43 58.49 89.08 61.97 100.49 73.73 103.08 99.61 92.12 108.89 74.37 87.91 34.79 64.13 37.19 43.88 53.12 49.09 70.77"/><polyline class="cls-4" points="69.69 36.63 59.95 5.32 37.59 14.33 45.66 29.43 53.98 45.17"/></g></g><polygon class="cls-13" points="61.16 90.28 63.62 98.39 73.35 100.55 97.67 90.08 106.72 73.82 95.86 87.66 73.62 97.47 64.82 96.26 61.16 90.28"/><polygon class="cls-13" points="55.83 89.02 52.97 88.07 49.34 73.84 53.99 85.72 69.97 75.76 85.51 74.29 70.71 77.21 55.72 87.91 55.83 89.02"/><path class="cls-13" d="m82.51,55.56l-14.39,1.13-17.56,10.61-4.04-13.22s4.87,10.29,4.99,10.13c.12-.16,15.44-9.26,15.44-9.26l15.57.61Z"/><polygon class="cls-13" points="40.69 15.71 54.45 41.53 62.32 35.47 54.93 39.03 40.69 15.71"/></g></g></svg>