<?xml version="1.0" encoding="UTF-8"?><svg id="Layer_2" xmlns="http://www.w3.org/2000/svg" xmlns:xlink="http://www.w3.org/1999/xlink" viewBox="0 0 199.5 78.23"><defs><style>.cls-1{fill:url(#radial-gradient);}</style><radialGradient id="radial-gradient" cx="77.17" cy="-41.81" fx="77.17" fy="-41.81" r="40.03" gradientTransform="translate(-50.29 66.22) rotate(4.32) scale(1.92 .9)" gradientUnits="userSpaceOnUse"><stop offset="0" stop-color="#ff0"/><stop offset=".05" stop-color="#fff802"/><stop offset=".27" stop-color="#ffde0e"/><stop offset=".51" stop-color="#ffcb17"/><stop offset=".75" stop-color="#ffbf1c"/><stop offset="1" stop-color="#ffbc1e"/></radialGradient></defs><g id="Nav"><g><path class="cls-1" d="m97.35,73.7c-2.04-4.92-7.23-7.96-14.83-8.55-.9-.07-1.84-.1-2.79-.1-5.13,0-11.05,1.03-17.11,2.97-3.41,1.09-6.9,2.49-10.35,4.14.55-.64,1.03-1.26,1.45-1.87,2.91-4.28,1.94-7.03.62-8.58-1.69-1.98-4.99-3.17-9.81-3.55-1.08-.08-2.24-.12-3.46-.12-3.16,0-6.79.28-10.8.84-.1.01-.21.03-.31.04.66-.32,1.28-.63,1.86-.95,4.73-2.57,6.97-5.15,6.67-7.68-.27-2.24-2.37-4-6.41-5.38-3.15-1.08-7.43-1.89-12.73-2.42,2.44-.33,4.72-.7,6.8-1.1,7.96-1.54,13.15-3.56,15.42-5.99,1.26-1.35,1.4-2.64,1.31-3.48-.18-1.58-1.34-3.09-3.44-4.5-.65-.44-1.39-.87-2.23-1.29.77.08,1.53.14,2.29.2,2.33.18,4.61.27,6.76.27,7.3,0,13.31-1.04,17.37-3,4.98-2.41,6.04-5.65,6.05-7.95,0-1.25-.28-2.54-.86-3.88,4.79,2.72,10.12,4.4,15.47,4.81.91.07,1.83.11,2.73.11,3.37,0,6.64-.49,9.73-1.47,4.11-1.3,7.67-3.37,10.59-6.16,1.3-1.24,2.45-2.61,3.44-4.08.32,1.85,1.08,3.48,2.28,4.89,2.39,2.81,6.47,4.51,11.82,4.92.88.07,1.8.1,2.73.1,7.45,0,16.52-2.18,25.89-6.14-1.91,1.99-3.02,3.82-3.32,5.49-.25,1.36.04,2.65.85,3.73,1.58,2.12,5.14,3.41,10.59,3.83,1.31.1,2.73.15,4.24.15,3.96,0,8.58-.35,13.71-1.02-1.45.58-2.8,1.15-4.03,1.73-6.37,2.97-9.4,5.76-9.25,8.53.18,3.39,5.11,5.68,14.66,6.81-1.97.27-3.82.57-5.55.9-7.33,1.39-12.04,3.22-13.99,5.45-1.11,1.26-1.17,2.47-1.03,3.26.31,1.74,1.84,3.34,4.68,4.9.89.49,1.91.98,3.06,1.46-.02,0-.03,0-.05,0-2.67-.21-5.23-.31-7.63-.31-7.47,0-13.33,1.02-16.96,2.94-3.74,1.98-5.19,4.96-4.1,8.4.34,1.07.93,2.17,1.75,3.31-6.16-2.78-12.6-4.51-18.72-4.98-1.14-.09-2.28-.13-3.38-.13-4,0-7.64.56-10.84,1.65-5.1,1.75-8.82,4.83-10.81,8.88Z"/><path d="m110.3,7.58c.45,1.1,1.07,2.11,1.86,3.04,2.59,3.05,6.96,4.89,12.62,5.33.91.07,1.86.11,2.82.11,6.54,0,14.29-1.64,22.38-4.66-.5.9-.82,1.77-.97,2.62-.31,1.69.06,3.3,1.06,4.64,1.79,2.4,5.64,3.85,11.44,4.29,1.34.1,2.79.16,4.33.16,2.05,0,4.27-.09,6.64-.27-5.18,2.78-7.54,5.48-7.38,8.39.17,3.1,3.01,5.31,8.81,6.73-6.97,1.42-11.36,3.26-13.4,5.59-1.41,1.61-1.49,3.2-1.3,4.24.3,1.7,1.48,3.24,3.58,4.69-.8-.02-1.59-.03-2.36-.03-7.66,0-13.72,1.06-17.52,3.08-4.23,2.24-5.94,5.81-4.67,9.8.06.19.12.37.2.56-5.31-2.06-10.74-3.35-15.95-3.75-1.17-.09-2.34-.14-3.47-.14-4.13,0-7.9.58-11.22,1.72-4.57,1.57-8.1,4.16-10.36,7.53-2.66-4.16-7.76-6.72-14.8-7.26-.93-.07-1.9-.11-2.88-.11-5.25,0-11.29,1.05-17.47,3.03-2.19.7-4.4,1.52-6.62,2.46,2.2-4.26.75-7.05-.41-8.41-1.9-2.23-5.48-3.56-10.61-3.95-1.11-.09-2.3-.13-3.55-.13-1.75,0-3.63.08-5.64.25,3.1-2.25,4.52-4.58,4.23-6.96-.33-2.73-2.68-4.81-7.19-6.35-1.54-.53-3.35-.99-5.4-1.4,7.83-1.58,12.99-3.67,15.36-6.21,1.56-1.68,1.74-3.33,1.61-4.42-.17-1.46-.97-2.85-2.4-4.14,1.58.08,3.13.13,4.61.13,7.48,0,13.66-1.08,17.88-3.12,4.31-2.08,6.69-5.28,6.72-9,0-.51-.04-1.03-.12-1.56,4.27,2.04,8.85,3.3,13.46,3.65.94.07,1.89.11,2.82.11,3.49,0,6.88-.51,10.08-1.53,4.28-1.35,8-3.51,11.05-6.43.77-.73,1.49-1.51,2.15-2.32m1.77-7.58c-1.26,3.13-3.12,5.88-5.55,8.2-2.79,2.66-6.2,4.64-10.13,5.89-2.98.94-6.13,1.42-9.38,1.42-.87,0-1.75-.03-2.64-.1-7.26-.56-14.32-3.44-20.13-8.18,2.84,3.04,4.27,5.87,4.25,8.42-.02,2.82-1.88,5.2-5.39,6.9-3.92,1.9-9.78,2.88-16.86,2.88-2.12,0-4.35-.09-6.68-.27-4.63-.36-9.55-1.06-14.67-2.1,6.4,1.66,11.05,3.46,13.86,5.34,3.1,2.08,3.77,4.23,1.93,6.2-2.06,2.21-7.17,4.16-14.78,5.64-6.9,1.34-15.79,2.26-25.92,2.7.79,0,1.58-.01,2.35-.01,5.15,0,9.85.16,14.05.49,6.55.51,11.7,1.39,15.3,2.62,3.52,1.2,5.41,2.69,5.62,4.4.24,1.98-1.86,4.22-6.06,6.5-3.78,2.05-9.14,4.1-15.98,6.11,5.45-1.35,10.53-2.36,15.15-3,3.96-.55,7.52-.83,10.63-.83,1.19,0,2.31.04,3.37.12,4.43.34,7.54,1.43,9.01,3.14,1.54,1.8,1.3,4.21-.7,7.15-1.76,2.59-4.81,5.47-9.1,8.61,6.25-3.9,12.87-7.02,19.34-9.09,6-1.92,11.73-2.91,16.76-2.91.92,0,1.83.03,2.7.1,9.1.7,14.36,4.97,14.7,11.81,1.03-5.71,5.02-10.01,11.41-12.2,3.06-1.05,6.63-1.59,10.46-1.59,1.08,0,2.18.04,3.29.13,8.5.66,17.46,3.73,25.54,8.71-4.06-3.1-6.54-5.97-7.36-8.57-.92-2.88.3-5.3,3.53-7,3.48-1.84,9.18-2.8,16.41-2.8,2.36,0,4.88.1,7.54.31,4.5.35,9.35.98,14.46,1.9-7.6-1.72-13.24-3.59-16.81-5.55-3.93-2.16-5.08-4.36-3.33-6.36,1.75-2,6.36-3.75,13.32-5.07,6.37-1.2,14.39-2.02,23.91-2.42-.66,0-1.32,0-1.97,0-4.66,0-8.86-.14-12.55-.43-11.15-.86-17.38-3.02-17.54-6.08-.12-2.18,2.85-4.74,8.57-7.41,5.23-2.44,12.5-4.88,21.64-7.28-12.64,2.84-23.65,4.34-31.81,4.34-1.48,0-2.87-.05-4.15-.15-5.02-.39-8.38-1.55-9.73-3.36-2.42-3.24,1.49-8.33,11.06-14.45-12.63,6.95-25.46,10.9-35.41,10.9-.9,0-1.78-.03-2.64-.1-5.03-.39-8.83-1.95-11.01-4.51-1.98-2.33-2.61-5.38-1.88-9.09h0Z"/></g></g></svg>