<?xml version="1.0" encoding="UTF-8"?><svg id="Layer_2" xmlns="http://www.w3.org/2000/svg" viewBox="0 0 152.06 76.5"><defs><style>.cls-1{fill:#fff;}</style></defs><g id="Buttons"><g><path class="cls-1" d="m151.29,25.01C148.74,7.08,113.17-2.67,71.85,3.23,30.53,9.13-.89,28.44,1.67,46.37s38.13,27.68,79.44,21.78c12.65-1.81,22.37-3.87,32.47-7.77,4.04,9.04-1.7,14.86-1.7,14.86,9.03-1.29,17.87-11.08,16.65-21.77,15.23-8.25,24.17-18.56,22.76-28.45Z"/><path d="m150.53,25.12c-2.5-11.85-17.67-16.9-28.16-19.45C92.64-.45,59.68,4.05,31.88,15.94c-8.3,3.79-16.41,8.42-22.65,15.1C-.63,41.57,1.63,52.54,14.05,59.49c18.78,9.99,42.29,10.01,63.04,7.86,12.63-1.59,25.25-3.73,37.08-8.37,2.01,4.06,2.66,9.06.73,13.32-.59,1.31-1.28,2.49-2.32,3.63,0,0-.84-1.67-.84-1.67,9.29-1.97,16.16-11.28,15.85-20.69,0,0,0-.66,0-.66l.49-.28c10.33-6.04,22.72-14.31,22.88-27.57,0,0-.44.06-.44.06h0Zm1.1-.16c3.02,12.9-12.69,24.16-22.63,29.33,0,0,.49-.94.49-.94,1.97,10.61-6.91,21.63-17.45,22.86,0,0-2.87.29-2.87.29,4.93-3.94,6.08-9.97,3.42-15.67,0,0,1.41.58,1.41.58-5.85,2.3-11.91,4.09-18.05,5.42-25.96,5.4-59.2,7.96-83.36-4.76C3.38,57.11-3.12,47.67,1.55,37.16c5.5-11.8,17.8-18.7,29.07-24C60.25.2,101.11-4.84,132.1,5.66c8.74,3.18,18.69,9.13,19.97,19.24,0,0-.44.06-.44.06h0Z"/></g></g></svg>